<svg width="67" height="20" viewBox="0 0 67 20" fill="none" xmlns="http://www.w3.org/2000/svg">
<path d="M0 6.4C0 4.15979 0 3.03968 0.435974 2.18404C0.819467 1.43139 1.43139 0.819467 2.18404 0.435974C3.03968 0 4.15979 0 6.4 0H60.6C62.8402 0 63.9603 0 64.816 0.435974C65.5686 0.819467 66.1805 1.43139 66.564 2.18404C67 3.03968 67 4.15979 67 6.4V13.6C67 15.8402 67 16.9603 66.564 17.816C66.1805 18.5686 65.5686 19.1805 64.816 19.564C63.9603 20 62.8402 20 60.6 20H6.4C4.15979 20 3.03968 20 2.18404 19.564C1.43139 19.1805 0.819467 18.5686 0.435974 17.816C0 16.9603 0 15.8402 0 13.6V6.4Z" fill="#2A2A30"/>
<path d="M11.3743 10.0997C11.6258 10.0997 11.8616 10.124 12.0755 10.1709C11.9958 11.1674 11.5277 11.3296 11.1151 11.3524C10.694 11.3761 10.256 11.1865 10.2344 10.7816C10.2186 10.4813 10.4482 10.1464 11.1407 10.1065C11.22 10.102 11.2979 10.0997 11.3743 10.0997Z" fill="white"/>
<path fill-rule="evenodd" clip-rule="evenodd" d="M14.4408 4.16669C15.7567 4.16669 16.8333 5.24335 16.8333 6.55927V13.4408C16.8333 14.7567 15.7567 15.8334 14.4408 15.8334H7.55924C6.24332 15.8334 5.16666 14.7567 5.16666 13.4408V6.55927C5.16666 5.24335 6.24332 4.16669 7.55924 4.16669H14.4408ZM11.0553 6.12632C9.92231 6.1343 9.05073 6.5154 8.46557 7.25938C7.94474 7.92129 7.67638 8.84247 7.66748 9.99717V10.0029C7.67638 11.1576 7.94475 12.0787 8.46557 12.7407C9.05073 13.4846 9.92231 13.866 11.0553 13.8737H11.0598C12.0669 13.8666 12.7769 13.6031 13.3618 13.0187C14.1269 12.2542 14.104 11.2959 13.8517 10.7075C13.6708 10.2858 13.3255 9.94314 12.8537 9.7169C12.8205 9.70098 12.7866 9.68531 12.7523 9.67076C12.6925 8.56905 12.0905 7.93808 11.0798 7.93158C10.4964 7.92771 9.97415 8.16587 9.64876 8.65961L10.2048 9.04071C10.436 8.69006 10.7989 8.61517 11.0661 8.61517H11.0752C11.4081 8.61723 11.6596 8.71419 11.822 8.90285C11.9402 9.04048 12.0192 9.23057 12.0584 9.47024C11.7632 9.42013 11.4443 9.40451 11.1031 9.42409C10.142 9.47946 9.52363 10.0399 9.56502 10.8186C9.58598 11.214 9.78299 11.5541 10.1193 11.7762C10.4037 11.964 10.7704 12.0558 11.151 12.0349C11.6538 12.0075 12.0481 11.8153 12.3233 11.4646C12.5322 11.1983 12.6643 10.8528 12.7227 10.4182C12.9621 10.5626 13.1394 10.7533 13.2376 10.9821C13.4041 11.3708 13.4142 12.0096 12.893 12.5305C12.4364 12.9868 11.8871 13.1839 11.0575 13.1901C10.137 13.1833 9.44049 12.8882 8.98795 12.3128C8.56417 11.7742 8.3456 10.996 8.3374 10C8.34561 9.00408 8.56417 8.22586 8.98795 7.6872C9.44049 7.11184 10.137 6.81675 11.0575 6.80992C11.9843 6.81679 12.6924 7.11323 13.1624 7.69118C13.3928 7.97461 13.5668 8.33122 13.6814 8.74677L14.3325 8.57302C14.1938 8.06156 13.9759 7.62049 13.6785 7.25482C13.0761 6.51362 12.195 6.13434 11.0598 6.12632H11.0553Z" fill="white"/>
<path d="M22.5284 6.40625V5.27273H29.2827V6.40625H26.5597V14H25.2472V6.40625H22.5284ZM31.9471 10.1136V14H30.6729V5.27273H31.93V8.51989H32.011C32.1644 8.16761 32.3988 7.88778 32.7141 7.6804C33.0295 7.47301 33.4414 7.36932 33.9499 7.36932C34.3988 7.36932 34.7908 7.46165 35.1261 7.64631C35.4641 7.83097 35.7255 8.10653 35.9102 8.47301C36.0977 8.83665 36.1914 9.29119 36.1914 9.83665V14H34.9173V9.99006C34.9173 9.50994 34.7937 9.13778 34.5465 8.87358C34.2994 8.60653 33.9556 8.47301 33.5153 8.47301C33.2141 8.47301 32.9442 8.53693 32.7056 8.66477C32.4698 8.79261 32.2837 8.98011 32.1474 9.22727C32.0138 9.47159 31.9471 9.76705 31.9471 10.1136ZM37.8917 14V7.45455H39.1232V8.49432H39.1914C39.3107 8.14205 39.521 7.86506 39.8221 7.66335C40.1261 7.45881 40.4698 7.35653 40.8533 7.35653C40.9329 7.35653 41.0266 7.35937 41.1346 7.36506C41.2454 7.37074 41.332 7.37784 41.3945 7.38636V8.60511C41.3434 8.59091 41.2525 8.57528 41.1218 8.55824C40.9911 8.53835 40.8604 8.52841 40.7298 8.52841C40.4286 8.52841 40.1602 8.59233 39.9244 8.72017C39.6914 8.84517 39.5067 9.01989 39.3704 9.24432C39.234 9.46591 39.1658 9.71875 39.1658 10.0028V14H37.8917ZM45.0838 14.1321C44.4389 14.1321 43.8835 13.9943 43.4176 13.7188C42.9545 13.4403 42.5966 13.0497 42.3438 12.5469C42.0938 12.0412 41.9688 11.4489 41.9688 10.7699C41.9688 10.0994 42.0938 9.50852 42.3438 8.99716C42.5966 8.4858 42.9489 8.08665 43.4006 7.79972C43.8551 7.51278 44.3864 7.36932 44.9943 7.36932C45.3636 7.36932 45.7216 7.4304 46.0682 7.55256C46.4148 7.67472 46.7259 7.86648 47.0014 8.12784C47.277 8.3892 47.4943 8.72869 47.6534 9.14631C47.8125 9.56108 47.892 10.0653 47.892 10.6591V11.1108H42.6889V10.1562H46.6435C46.6435 9.82102 46.5753 9.52415 46.4389 9.26562C46.3026 9.00426 46.1108 8.7983 45.8636 8.64773C45.6193 8.49716 45.3324 8.42188 45.0028 8.42188C44.6449 8.42188 44.3324 8.50994 44.0653 8.68608C43.8011 8.85937 43.5966 9.08665 43.4517 9.3679C43.3097 9.64631 43.2386 9.94886 43.2386 10.2756V11.0213C43.2386 11.4588 43.3153 11.831 43.4688 12.1378C43.625 12.4446 43.8423 12.679 44.1207 12.8409C44.3991 13 44.7244 13.0795 45.0966 13.0795C45.3381 13.0795 45.5582 13.0455 45.7571 12.9773C45.956 12.9062 46.1278 12.8011 46.2727 12.6619C46.4176 12.5227 46.5284 12.3509 46.6051 12.1463L47.8111 12.3636C47.7145 12.7187 47.5412 13.0298 47.2912 13.2969C47.044 13.5611 46.733 13.767 46.358 13.9148C45.9858 14.0597 45.5611 14.1321 45.0838 14.1321ZM51.2106 14.1449C50.7958 14.1449 50.4208 14.0682 50.0856 13.9148C49.7504 13.7585 49.4847 13.5327 49.2887 13.2372C49.0955 12.9418 48.9989 12.5795 48.9989 12.1506C48.9989 11.7812 49.07 11.4773 49.212 11.2386C49.354 11 49.5458 10.8111 49.7873 10.6719C50.0288 10.5327 50.2987 10.4276 50.5969 10.3565C50.8952 10.2855 51.1992 10.2315 51.5089 10.1946C51.9009 10.1491 52.2191 10.1122 52.4634 10.0838C52.7077 10.0526 52.8853 10.0028 52.9961 9.93466C53.1069 9.86648 53.1623 9.75568 53.1623 9.60227V9.57244C53.1623 9.20028 53.0572 8.91193 52.8469 8.70739C52.6396 8.50284 52.3299 8.40057 51.918 8.40057C51.489 8.40057 51.1509 8.49574 50.9038 8.68608C50.6594 8.87358 50.4904 9.08239 50.3967 9.3125L49.1992 9.03977C49.3413 8.64205 49.5487 8.32102 49.8214 8.0767C50.0969 7.82955 50.4137 7.65057 50.7717 7.53977C51.1296 7.42614 51.506 7.36932 51.9009 7.36932C52.1623 7.36932 52.4393 7.40057 52.7319 7.46307C53.0273 7.52273 53.3029 7.63352 53.5586 7.79545C53.8171 7.95739 54.0288 8.18892 54.1935 8.49006C54.3583 8.78835 54.4407 9.17614 54.4407 9.65341V14H53.1964V13.1051H53.1452C53.0629 13.2699 52.9393 13.4318 52.7745 13.5909C52.6097 13.75 52.3981 13.8821 52.1396 13.9872C51.881 14.0923 51.5714 14.1449 51.2106 14.1449ZM51.4876 13.1222C51.8398 13.1222 52.141 13.0526 52.391 12.9134C52.6438 12.7741 52.8356 12.5923 52.9663 12.3679C53.0998 12.1406 53.1665 11.8977 53.1665 11.6392V10.7955C53.1211 10.8409 53.033 10.8835 52.9023 10.9233C52.7745 10.9602 52.6282 10.9929 52.4634 11.0213C52.2987 11.0469 52.1381 11.071 51.9819 11.0938C51.8256 11.1136 51.695 11.1307 51.5898 11.1449C51.3427 11.1761 51.1168 11.2287 50.9123 11.3026C50.7106 11.3764 50.5487 11.483 50.4265 11.6222C50.3072 11.7585 50.2475 11.9403 50.2475 12.1676C50.2475 12.483 50.364 12.7216 50.5969 12.8835C50.8299 13.0426 51.1268 13.1222 51.4876 13.1222ZM58.5881 14.1278C58.0597 14.1278 57.5881 13.9929 57.1733 13.723C56.7614 13.4503 56.4375 13.0625 56.2017 12.5597C55.9688 12.054 55.8523 11.4474 55.8523 10.7401C55.8523 10.0327 55.9702 9.42756 56.206 8.92472C56.4446 8.42187 56.7713 8.03693 57.1861 7.76989C57.6009 7.50284 58.071 7.36932 58.5966 7.36932C59.0028 7.36932 59.3295 7.4375 59.5767 7.57386C59.8267 7.70739 60.0199 7.86364 60.1562 8.04261C60.2955 8.22159 60.4034 8.37926 60.4801 8.51562H60.5568V5.27273H61.831V14H60.5866V12.9815H60.4801C60.4034 13.1207 60.2926 13.2798 60.1477 13.4588C60.0057 13.6378 59.8097 13.794 59.5597 13.9276C59.3097 14.0611 58.9858 14.1278 58.5881 14.1278ZM58.8693 13.0412C59.2358 13.0412 59.5455 12.9446 59.7983 12.7514C60.054 12.5554 60.2472 12.2841 60.3778 11.9375C60.5114 11.5909 60.5781 11.1875 60.5781 10.7273C60.5781 10.2727 60.5128 9.875 60.3821 9.53409C60.2514 9.19318 60.0597 8.92756 59.8068 8.73722C59.554 8.54687 59.2415 8.4517 58.8693 8.4517C58.4858 8.4517 58.1662 8.55114 57.9105 8.75C57.6548 8.94886 57.4616 9.22017 57.331 9.56392C57.2031 9.90767 57.1392 10.2955 57.1392 10.7273C57.1392 11.1648 57.2045 11.5582 57.3352 11.9077C57.4659 12.2571 57.6591 12.5341 57.9148 12.7386C58.1733 12.9403 58.4915 13.0412 58.8693 13.0412Z" fill="white"/>
</svg>
