<svg width="61" height="20" viewBox="0 0 61 20" fill="none" xmlns="http://www.w3.org/2000/svg">
<path d="M0 6.4C0 4.15979 0 3.03968 0.435974 2.18404C0.819467 1.43139 1.43139 0.819467 2.18404 0.435974C3.03968 0 4.15979 0 6.4 0H54.6C56.8402 0 57.9603 0 58.816 0.435974C59.5686 0.819467 60.1805 1.43139 60.564 2.18404C61 3.03968 61 4.15979 61 6.4V13.6C61 15.8402 61 16.9603 60.564 17.816C60.1805 18.5686 59.5686 19.1805 58.816 19.564C57.9603 20 56.8402 20 54.6 20H6.4C4.15979 20 3.03968 20 2.18404 19.564C1.43139 19.1805 0.819467 18.5686 0.435974 17.816C0 16.9603 0 15.8402 0 13.6V6.4Z" fill="#ABC5D9"/>
<path d="M15.9954 14.6432L12.0862 9.09335L16.4197 4.16669H15.4283L14.5797 5.12682L11.6442 8.46568L8.84791 4.49569L8.61623 4.16669H5.18013L6.01816 5.35677L9.73623 10.6359L5.16667 15.8333H6.15801L10.1781 11.263L13.1655 15.5046L13.3972 15.8334H16.8333L15.9953 14.6433L15.9954 14.6432ZM13.8057 15.0737L10.702 10.667L10.2601 10.0398L6.65859 4.92623H8.20777L11.1203 9.06158L11.5623 9.68887L15.3549 15.0736H13.8057V15.0737Z" fill="black"/>
<path d="M23.8622 7.45455L25.3068 10.0028L26.7642 7.45455H28.1577L26.1165 10.7273L28.1747 14H26.7812L25.3068 11.554L23.8366 14H22.4389L24.4759 10.7273L22.4645 7.45455H23.8622ZM30.3054 14.081C30.0724 14.081 29.8722 13.9986 29.7045 13.8338C29.5369 13.6662 29.4531 13.4645 29.4531 13.2287C29.4531 12.9957 29.5369 12.7969 29.7045 12.6321C29.8722 12.4645 30.0724 12.3807 30.3054 12.3807C30.5384 12.3807 30.7386 12.4645 30.9062 12.6321C31.0739 12.7969 31.1577 12.9957 31.1577 13.2287C31.1577 13.3849 31.1179 13.5284 31.0384 13.6591C30.9616 13.7869 30.8594 13.8892 30.7315 13.9659C30.6037 14.0426 30.4616 14.081 30.3054 14.081ZM35.6214 14.1321C34.9879 14.1321 34.4425 13.9886 33.9851 13.7017C33.5305 13.4119 33.1811 13.0128 32.9368 12.5043C32.6925 11.9957 32.5703 11.4134 32.5703 10.7571C32.5703 10.0923 32.6953 9.50568 32.9453 8.99716C33.1953 8.4858 33.5476 8.08665 34.0021 7.79972C34.4567 7.51278 34.9922 7.36932 35.6087 7.36932C36.1058 7.36932 36.549 7.46165 36.9382 7.64631C37.3274 7.82812 37.6413 8.08381 37.88 8.41335C38.1214 8.7429 38.2649 9.12784 38.3104 9.56818H37.0703C37.0021 9.26136 36.8459 8.99716 36.6016 8.77557C36.3601 8.55398 36.0362 8.44318 35.63 8.44318C35.2749 8.44318 34.9638 8.53693 34.6967 8.72443C34.4325 8.90909 34.2266 9.1733 34.0788 9.51705C33.9311 9.85795 33.8572 10.2614 33.8572 10.7273C33.8572 11.2045 33.9297 11.6165 34.0746 11.9631C34.2195 12.3097 34.424 12.5781 34.6882 12.7685C34.9553 12.9588 35.2692 13.054 35.63 13.054C35.8714 13.054 36.0902 13.0099 36.2862 12.9219C36.4851 12.831 36.6513 12.7017 36.7848 12.5341C36.9212 12.3665 37.0163 12.1648 37.0703 11.929H38.3104C38.2649 12.3523 38.1271 12.7301 37.897 13.0625C37.6669 13.3949 37.3587 13.6562 36.9723 13.8466C36.5888 14.0369 36.1385 14.1321 35.6214 14.1321ZM42.43 14.1321C41.8164 14.1321 41.2809 13.9915 40.8235 13.7102C40.3661 13.429 40.011 13.0355 39.7582 12.5298C39.5053 12.0241 39.3789 11.4332 39.3789 10.7571C39.3789 10.0781 39.5053 9.48437 39.7582 8.97585C40.011 8.46733 40.3661 8.07244 40.8235 7.79119C41.2809 7.50994 41.8164 7.36932 42.43 7.36932C43.0437 7.36932 43.5792 7.50994 44.0366 7.79119C44.494 8.07244 44.8491 8.46733 45.1019 8.97585C45.3548 9.48437 45.4812 10.0781 45.4812 10.7571C45.4812 11.4332 45.3548 12.0241 45.1019 12.5298C44.8491 13.0355 44.494 13.429 44.0366 13.7102C43.5792 13.9915 43.0437 14.1321 42.43 14.1321ZM42.4343 13.0625C42.832 13.0625 43.1616 12.9574 43.4229 12.7472C43.6843 12.5369 43.8775 12.2571 44.0025 11.9077C44.1303 11.5582 44.1942 11.1733 44.1942 10.7528C44.1942 10.3352 44.1303 9.9517 44.0025 9.60227C43.8775 9.25 43.6843 8.96733 43.4229 8.75426C43.1616 8.54119 42.832 8.43466 42.4343 8.43466C42.0337 8.43466 41.7013 8.54119 41.4371 8.75426C41.1758 8.96733 40.9812 9.25 40.8533 9.60227C40.7283 9.9517 40.6658 10.3352 40.6658 10.7528C40.6658 11.1733 40.7283 11.5582 40.8533 11.9077C40.9812 12.2571 41.1758 12.5369 41.4371 12.7472C41.7013 12.9574 42.0337 13.0625 42.4343 13.0625ZM46.9034 14V7.45455H48.1264V8.51989H48.2074C48.3438 8.15909 48.5668 7.87784 48.8764 7.67614C49.1861 7.47159 49.5568 7.36932 49.9886 7.36932C50.4261 7.36932 50.7926 7.47159 51.0881 7.67614C51.3864 7.88068 51.6065 8.16193 51.7486 8.51989H51.8168C51.973 8.17045 52.2216 7.89205 52.5625 7.68466C52.9034 7.47443 53.3097 7.36932 53.7812 7.36932C54.375 7.36932 54.8594 7.5554 55.2344 7.92756C55.6122 8.29972 55.8011 8.8608 55.8011 9.6108V14H54.527V9.73011C54.527 9.28693 54.4063 8.96591 54.1648 8.76705C53.9233 8.56818 53.6349 8.46875 53.2997 8.46875C52.8849 8.46875 52.5625 8.59659 52.3324 8.85227C52.1023 9.10511 51.9872 9.4304 51.9872 9.82812V14H50.7173V9.64915C50.7173 9.29403 50.6065 9.00852 50.3849 8.79261C50.1634 8.5767 49.875 8.46875 49.5199 8.46875C49.2784 8.46875 49.0554 8.53267 48.8509 8.66051C48.6491 8.78551 48.4858 8.96023 48.3608 9.18466C48.2386 9.40909 48.1776 9.66903 48.1776 9.96449V14H46.9034Z" fill="black"/>
</svg>
