<svg width="75" height="20" viewBox="0 0 75 20" fill="none" xmlns="http://www.w3.org/2000/svg">
<path d="M0 6.4C0 4.15979 0 3.03969 0.435974 2.18404C0.819467 1.43139 1.43139 0.819467 2.18404 0.435974C3.03969 0 4.15979 0 6.4 0H68.6C70.8402 0 71.9603 0 72.816 0.435974C73.5686 0.819467 74.1805 1.43139 74.564 2.18404C75 3.03969 75 4.15979 75 6.4V13.6C75 15.8402 75 16.9603 74.564 17.816C74.1805 18.5686 73.5686 19.1805 72.816 19.564C71.9603 20 70.8402 20 68.6 20H6.4C4.15979 20 3.03969 20 2.18404 19.564C1.43139 19.1805 0.819467 18.5686 0.435974 17.816C0 16.9603 0 15.8402 0 13.6V6.4Z" fill="#1F71AF"/>
<path d="M15.9697 4.16669H6.02799C5.55176 4.16669 5.16666 4.54266 5.16666 5.00751V14.9903C5.16666 15.4551 5.55176 15.8334 6.02799 15.8334H15.9697C16.446 15.8334 16.8333 15.4551 16.8333 14.9925V5.00751C16.8333 4.54266 16.446 4.16669 15.9697 4.16669ZM8.62793 14.1084H6.89616V8.53941H8.62793V14.1084ZM7.76204 7.78062C7.20605 7.78062 6.75716 7.33173 6.75716 6.77802C6.75716 6.2243 7.20605 5.77541 7.76204 5.77541C8.31575 5.77541 8.76465 6.2243 8.76465 6.77802C8.76465 7.32945 8.31575 7.78062 7.76204 7.78062ZM15.1084 14.1084H13.3789V11.4014C13.3789 10.7565 13.3675 9.92483 12.4788 9.92483C11.5788 9.92483 11.4421 10.6289 11.4421 11.3558V14.1084H9.71484V8.53941H11.3737V9.30048H11.3965C11.6266 8.86298 12.1917 8.40041 13.0326 8.40041C14.7848 8.40041 15.1084 9.55341 15.1084 11.0528V14.1084Z" fill="white"/>
<path d="M22.9588 14V5.27273H24.2756V12.8665H28.2301V14H22.9588ZM29.63 14V7.45455H30.9041V14H29.63ZM30.2734 6.4446C30.0518 6.4446 29.8615 6.37074 29.7024 6.22301C29.5462 6.07244 29.468 5.89347 29.468 5.68608C29.468 5.47585 29.5462 5.29687 29.7024 5.14915C29.8615 4.99858 30.0518 4.9233 30.2734 4.9233C30.495 4.9233 30.6839 4.99858 30.8402 5.14915C30.9993 5.29687 31.0788 5.47585 31.0788 5.68608C31.0788 5.89347 30.9993 6.07244 30.8402 6.22301C30.6839 6.37074 30.495 6.4446 30.2734 6.4446ZM33.8924 10.1136V14H32.6183V7.45455H33.8413V8.51989H33.9222C34.0728 8.1733 34.3086 7.89489 34.6296 7.68466C34.9535 7.47443 35.3612 7.36932 35.8526 7.36932C36.2987 7.36932 36.6893 7.46307 37.0245 7.65057C37.3597 7.83523 37.6197 8.1108 37.8043 8.47727C37.989 8.84375 38.0813 9.29687 38.0813 9.83665V14H36.8072V9.99006C36.8072 9.51562 36.6836 9.14489 36.4364 8.87784C36.1893 8.60795 35.8498 8.47301 35.418 8.47301C35.1225 8.47301 34.8597 8.53693 34.6296 8.66477C34.4023 8.79261 34.2219 8.98011 34.0884 9.22727C33.9577 9.47159 33.8924 9.76705 33.8924 10.1136ZM40.962 11.7798L40.9535 10.2244H41.1751L43.783 7.45455H45.3086L42.3342 10.608H42.1339L40.962 11.7798ZM39.7901 14V5.27273H41.0643V14H39.7901ZM43.9237 14L41.5799 10.8892L42.4577 9.99858L45.4876 14H43.9237ZM49.0213 14.1321C48.3764 14.1321 47.821 13.9943 47.3551 13.7188C46.892 13.4403 46.5341 13.0497 46.2812 12.5469C46.0312 12.0412 45.9062 11.4489 45.9062 10.7699C45.9062 10.0994 46.0312 9.50852 46.2812 8.99716C46.5341 8.4858 46.8864 8.08665 47.3381 7.79972C47.7926 7.51278 48.3239 7.36932 48.9318 7.36932C49.3011 7.36932 49.6591 7.4304 50.0057 7.55256C50.3523 7.67472 50.6634 7.86648 50.9389 8.12784C51.2145 8.3892 51.4318 8.72869 51.5909 9.14631C51.75 9.56108 51.8295 10.0653 51.8295 10.6591V11.1108H46.6264V10.1562H50.581C50.581 9.82102 50.5128 9.52415 50.3764 9.26562C50.2401 9.00426 50.0483 8.7983 49.8011 8.64773C49.5568 8.49716 49.2699 8.42188 48.9403 8.42188C48.5824 8.42188 48.2699 8.50994 48.0028 8.68608C47.7386 8.85937 47.5341 9.08665 47.3892 9.3679C47.2472 9.64631 47.1761 9.94886 47.1761 10.2756V11.0213C47.1761 11.4588 47.2528 11.831 47.4062 12.1378C47.5625 12.4446 47.7798 12.679 48.0582 12.8409C48.3366 13 48.6619 13.0795 49.0341 13.0795C49.2756 13.0795 49.4957 13.0455 49.6946 12.9773C49.8935 12.9062 50.0653 12.8011 50.2102 12.6619C50.3551 12.5227 50.4659 12.3509 50.5426 12.1463L51.7486 12.3636C51.652 12.7187 51.4787 13.0298 51.2287 13.2969C50.9815 13.5611 50.6705 13.767 50.2955 13.9148C49.9233 14.0597 49.4986 14.1321 49.0213 14.1321ZM55.6935 14.1278C55.1651 14.1278 54.6935 13.9929 54.2788 13.723C53.8668 13.4503 53.543 13.0625 53.3072 12.5597C53.0742 12.054 52.9577 11.4474 52.9577 10.7401C52.9577 10.0327 53.0756 9.42756 53.3114 8.92472C53.5501 8.42187 53.8768 8.03693 54.2915 7.76989C54.7063 7.50284 55.1765 7.36932 55.7021 7.36932C56.1083 7.36932 56.435 7.4375 56.6822 7.57386C56.9322 7.70739 57.1254 7.86364 57.2617 8.04261C57.4009 8.22159 57.5089 8.37926 57.5856 8.51562H57.6623V5.27273H58.9364V14H57.6921V12.9815H57.5856C57.5089 13.1207 57.3981 13.2798 57.2532 13.4588C57.1112 13.6378 56.9151 13.794 56.6651 13.9276C56.4151 14.0611 56.0913 14.1278 55.6935 14.1278ZM55.9748 13.0412C56.3413 13.0412 56.6509 12.9446 56.9038 12.7514C57.1594 12.5554 57.3526 12.2841 57.4833 11.9375C57.6168 11.5909 57.6836 11.1875 57.6836 10.7273C57.6836 10.2727 57.6183 9.875 57.4876 9.53409C57.3569 9.19318 57.1651 8.92756 56.9123 8.73722C56.6594 8.54687 56.3469 8.4517 55.9748 8.4517C55.5913 8.4517 55.2717 8.55114 55.016 8.75C54.7603 8.94886 54.5671 9.22017 54.4364 9.56392C54.3086 9.90767 54.2447 10.2955 54.2447 10.7273C54.2447 11.1648 54.31 11.5582 54.4407 11.9077C54.5714 12.2571 54.7646 12.5341 55.0202 12.7386C55.2788 12.9403 55.5969 13.0412 55.9748 13.0412ZM62.174 5.27273V14H60.8572V5.27273H62.174ZM65.2635 10.1136V14H63.9893V7.45455H65.2124V8.51989H65.2933C65.4439 8.1733 65.6797 7.89489 66.0007 7.68466C66.3246 7.47443 66.7322 7.36932 67.2237 7.36932C67.6697 7.36932 68.0604 7.46307 68.3956 7.65057C68.7308 7.83523 68.9908 8.1108 69.1754 8.47727C69.3601 8.84375 69.4524 9.29687 69.4524 9.83665V14H68.1783V9.99006C68.1783 9.51562 68.0547 9.14489 67.8075 8.87784C67.5604 8.60795 67.2209 8.47301 66.7891 8.47301C66.4936 8.47301 66.2308 8.53693 66.0007 8.66477C65.7734 8.79261 65.593 8.98011 65.4595 9.22727C65.3288 9.47159 65.2635 9.76705 65.2635 10.1136Z" fill="white"/>
</svg>
