<svg width="77" height="20" viewBox="0 0 77 20" fill="none" xmlns="http://www.w3.org/2000/svg">
<path d="M0 6.4C0 4.15979 0 3.03968 0.435974 2.18404C0.819467 1.43139 1.43139 0.819467 2.18404 0.435974C3.03968 0 4.15979 0 6.4 0H70.6C72.8402 0 73.9603 0 74.816 0.435974C75.5686 0.819467 76.1805 1.43139 76.564 2.18404C77 3.03968 77 4.15979 77 6.4V13.6C77 15.8402 77 16.9603 76.564 17.816C76.1805 18.5686 75.5686 19.1805 74.816 19.564C73.9603 20 72.8402 20 70.6 20H6.4C4.15979 20 3.03968 20 2.18404 19.564C1.43139 19.1805 0.819467 18.5686 0.435974 17.816C0 16.9603 0 15.8402 0 13.6V6.4Z" fill="#FF2442"/>
<path d="M6.62466 3.04129C5.80791 3.21195 5.13303 3.85183 5.04969 4.71293C4.96339 5.60229 5.04969 6.54407 5.04969 7.43826V12.9979C5.04969 14.0203 4.79263 15.4068 5.44788 16.2683C6.15572 17.1985 7.44733 16.9769 8.4704 16.9769H16.3982C16.7123 16.9769 17.0679 17.023 17.3757 16.9587C18.1925 16.788 18.867 16.1482 18.9503 15.2871C19.0366 14.3977 18.9503 13.4559 18.9503 12.5617V7.00213C18.9503 5.97967 19.2074 4.59321 18.5521 3.73173C17.8443 2.80148 16.5527 3.02307 15.5296 3.02307H7.60179C7.28769 3.02307 6.93247 2.97697 6.62466 3.04129Z" fill="white"/>
<path d="M8.30566 8.23949C8.41391 8.16181 8.86526 8.17829 8.91406 8.31175C8.99272 8.53087 8.92188 8.8988 8.92188 9.13206V10.675C8.92188 10.9395 8.96782 11.2476 8.8584 11.4953C8.75385 11.7316 8.26694 11.9419 8.02539 11.76C7.91925 11.6799 7.84359 11.3788 7.81738 11.2541C7.94939 11.2542 8.14559 11.2939 8.22559 11.1584C8.31047 11.014 8.24902 10.695 8.24902 10.5305V8.93968C8.24902 8.79064 8.17456 8.33424 8.30566 8.23949Z" fill="#FF2842"/>
<path fill-rule="evenodd" clip-rule="evenodd" d="M15.1201 8.45726C15.2993 8.45725 15.524 8.42005 15.6963 8.47288C16.2718 8.64923 16.2256 9.217 16.2256 9.71117C16.3215 9.71115 16.4197 9.70316 16.5137 9.72679C17.0659 9.86529 16.9942 10.42 16.9941 10.8684C16.9941 11.1076 17.0385 11.3903 16.8818 11.592C16.7092 11.8139 16.4267 11.7844 16.1777 11.7844C16.1005 11.7844 15.9729 11.8094 15.9053 11.761C15.7791 11.6698 15.7238 11.3986 15.6973 11.2541C15.8553 11.2542 16.1398 11.3088 16.2656 11.1907C16.4137 11.0509 16.3532 10.5041 16.1777 10.4104C16.0847 10.361 15.9424 10.3869 15.8408 10.3869H15.1201V11.7854H14.4482V10.3869H13.7754V9.71117H14.4482V9.13304H14.0156V8.45726H14.4482V8.21605H15.1201V8.45726ZM15.1201 9.13206V9.71117H15.5527V9.13206H15.1201Z" fill="#FF2842"/>
<path d="M10.8438 11.1418L11.5166 11.1584L11.2764 11.7854H10.2188L10.4756 11.134L10.8438 11.1418Z" fill="#FF2842"/>
<path d="M13.583 9.13206H13.1982V11.1575H13.8232V11.7844H11.6123L11.8691 11.1819L12.4775 11.1584V9.13206H12.0938V8.45726H13.583V9.13206Z" fill="#FF2842"/>
<path d="M7.61719 10.9172L7.28809 11.4953L7 10.7239L7.14453 9.13206H7.81738L7.61719 10.9172Z" fill="#FF2842"/>
<path d="M10.1709 10.7239L9.88281 11.4475H9.78711C9.52923 11.0376 9.49574 10.6151 9.4502 10.1457C9.41776 9.81224 9.35454 9.46851 9.35449 9.13304L10.0273 9.13206L10.1709 10.7239Z" fill="#FF2842"/>
<path d="M10.9482 8.23949C11.1333 8.11041 11.4145 8.20017 11.6123 8.21605L11.2764 9.13206H11.8525L11.3721 10.2893L11.8047 10.3381C11.7572 10.4675 11.6933 10.7115 11.5967 10.8127C11.5256 10.8868 11.4169 10.8684 11.3242 10.8684C11.1148 10.8684 10.6923 10.9555 10.5801 10.7239C10.5286 10.6176 10.6019 10.483 10.6436 10.386C10.7307 10.183 10.8464 9.97544 10.8916 9.75902C10.7872 9.75903 10.6552 9.78007 10.5557 9.74339C10.182 9.60554 10.5974 9.00178 10.6836 8.79417C10.7442 8.64831 10.8166 8.33188 10.9482 8.23949Z" fill="#FF2842"/>
<path d="M16.3369 8.69847C16.4975 8.17798 17.2797 8.59788 16.8896 9.02855C16.8454 9.07721 16.7678 9.10101 16.7061 9.11644C16.5832 9.14736 16.4471 9.13207 16.3213 9.13206C16.3213 8.99499 16.2961 8.8306 16.3369 8.69847Z" fill="#FF2842"/>
<path d="M24.9588 14V5.27273H28.0696C28.7457 5.27273 29.3068 5.3892 29.7528 5.62216C30.2017 5.85511 30.5369 6.17756 30.7585 6.58949C30.9801 6.99858 31.0909 7.47159 31.0909 8.00852C31.0909 8.54261 30.9787 9.01278 30.7543 9.41903C30.5327 9.82244 30.1974 10.1364 29.7486 10.3608C29.3026 10.5852 28.7415 10.6974 28.0653 10.6974H25.7088V9.56392H27.946C28.3722 9.56392 28.7188 9.50284 28.9858 9.38068C29.2557 9.25852 29.4531 9.08097 29.5781 8.84801C29.7031 8.61506 29.7656 8.33523 29.7656 8.00852C29.7656 7.67898 29.7017 7.39347 29.5739 7.15199C29.4489 6.91051 29.2514 6.72585 28.9815 6.59801C28.7145 6.46733 28.3636 6.40199 27.929 6.40199H26.2756V14H24.9588ZM29.267 10.0625L31.4233 14H29.9233L27.8097 10.0625H29.267ZM35.3299 14.1321C34.685 14.1321 34.1296 13.9943 33.6637 13.7188C33.2006 13.4403 32.8427 13.0497 32.5898 12.5469C32.3398 12.0412 32.2148 11.4489 32.2148 10.7699C32.2148 10.0994 32.3398 9.50852 32.5898 8.99716C32.8427 8.4858 33.195 8.08665 33.6467 7.79972C34.1012 7.51278 34.6325 7.36932 35.2404 7.36932C35.6097 7.36932 35.9677 7.4304 36.3143 7.55256C36.6609 7.67472 36.9719 7.86648 37.2475 8.12784C37.5231 8.3892 37.7404 8.72869 37.8995 9.14631C38.0586 9.56108 38.1381 10.0653 38.1381 10.6591V11.1108H32.935V10.1562H36.8896C36.8896 9.82102 36.8214 9.52415 36.685 9.26562C36.5487 9.00426 36.3569 8.7983 36.1097 8.64773C35.8654 8.49716 35.5785 8.42188 35.2489 8.42188C34.891 8.42188 34.5785 8.50994 34.3114 8.68608C34.0472 8.85937 33.8427 9.08665 33.6978 9.3679C33.5558 9.64631 33.4847 9.94886 33.4847 10.2756V11.0213C33.4847 11.4588 33.5614 11.831 33.7148 12.1378C33.8711 12.4446 34.0884 12.679 34.3668 12.8409C34.6452 13 34.9705 13.0795 35.3427 13.0795C35.5842 13.0795 35.8043 13.0455 36.0032 12.9773C36.2021 12.9062 36.3739 12.8011 36.5188 12.6619C36.6637 12.5227 36.7745 12.3509 36.8512 12.1463L38.0572 12.3636C37.9606 12.7187 37.7873 13.0298 37.5373 13.2969C37.2901 13.5611 36.979 13.767 36.604 13.9148C36.2319 14.0597 35.8072 14.1321 35.3299 14.1321ZM42.0021 14.1278C41.4737 14.1278 41.0021 13.9929 40.5874 13.723C40.1754 13.4503 39.8516 13.0625 39.6158 12.5597C39.3828 12.054 39.2663 11.4474 39.2663 10.7401C39.2663 10.0327 39.3842 9.42756 39.62 8.92472C39.8587 8.42187 40.1854 8.03693 40.6001 7.76989C41.0149 7.50284 41.4851 7.36932 42.0107 7.36932C42.4169 7.36932 42.7436 7.4375 42.9908 7.57386C43.2408 7.70739 43.4339 7.86364 43.5703 8.04261C43.7095 8.22159 43.8175 8.37926 43.8942 8.51562H43.9709V5.27273H45.245V14H44.0007V12.9815H43.8942C43.8175 13.1207 43.7067 13.2798 43.5618 13.4588C43.4197 13.6378 43.2237 13.794 42.9737 13.9276C42.7237 14.0611 42.3999 14.1278 42.0021 14.1278ZM42.2834 13.0412C42.6499 13.0412 42.9595 12.9446 43.2124 12.7514C43.468 12.5554 43.6612 12.2841 43.7919 11.9375C43.9254 11.5909 43.9922 11.1875 43.9922 10.7273C43.9922 10.2727 43.9268 9.875 43.7962 9.53409C43.6655 9.19318 43.4737 8.92756 43.2209 8.73722C42.968 8.54687 42.6555 8.4517 42.2834 8.4517C41.8999 8.4517 41.5803 8.55114 41.3246 8.75C41.0689 8.94886 40.8757 9.22017 40.745 9.56392C40.6172 9.90767 40.5533 10.2955 40.5533 10.7273C40.5533 11.1648 40.6186 11.5582 40.7493 11.9077C40.88 12.2571 41.0732 12.5341 41.3288 12.7386C41.5874 12.9403 41.9055 13.0412 42.2834 13.0412ZM48.3377 10.1136V14H47.0636V7.45455H48.2866V8.51989H48.3675C48.5181 8.1733 48.7539 7.89489 49.0749 7.68466C49.3988 7.47443 49.8065 7.36932 50.2979 7.36932C50.744 7.36932 51.1346 7.46307 51.4698 7.65057C51.805 7.83523 52.065 8.1108 52.2496 8.47727C52.4343 8.84375 52.5266 9.29687 52.5266 9.83665V14H51.2525V9.99006C51.2525 9.51562 51.1289 9.14489 50.8817 8.87784C50.6346 8.60795 50.2951 8.47301 49.8633 8.47301C49.5678 8.47301 49.305 8.53693 49.0749 8.66477C48.8477 8.79261 48.6673 8.98011 48.5337 9.22727C48.4031 9.47159 48.3377 9.76705 48.3377 10.1136ZM56.9925 14.1321C56.3789 14.1321 55.8434 13.9915 55.386 13.7102C54.9286 13.429 54.5735 13.0355 54.3207 12.5298C54.0678 12.0241 53.9414 11.4332 53.9414 10.7571C53.9414 10.0781 54.0678 9.48437 54.3207 8.97585C54.5735 8.46733 54.9286 8.07244 55.386 7.79119C55.8434 7.50994 56.3789 7.36932 56.9925 7.36932C57.6062 7.36932 58.1417 7.50994 58.5991 7.79119C59.0565 8.07244 59.4116 8.46733 59.6644 8.97585C59.9173 9.48437 60.0437 10.0781 60.0437 10.7571C60.0437 11.4332 59.9173 12.0241 59.6644 12.5298C59.4116 13.0355 59.0565 13.429 58.5991 13.7102C58.1417 13.9915 57.6062 14.1321 56.9925 14.1321ZM56.9968 13.0625C57.3945 13.0625 57.7241 12.9574 57.9854 12.7472C58.2468 12.5369 58.44 12.2571 58.565 11.9077C58.6928 11.5582 58.7567 11.1733 58.7567 10.7528C58.7567 10.3352 58.6928 9.9517 58.565 9.60227C58.44 9.25 58.2468 8.96733 57.9854 8.75426C57.7241 8.54119 57.3945 8.43466 56.9968 8.43466C56.5962 8.43466 56.2638 8.54119 55.9996 8.75426C55.7383 8.96733 55.5437 9.25 55.4158 9.60227C55.2908 9.9517 55.2283 10.3352 55.2283 10.7528C55.2283 11.1733 55.2908 11.5582 55.4158 11.9077C55.5437 12.2571 55.7383 12.5369 55.9996 12.7472C56.2638 12.9574 56.5962 13.0625 56.9968 13.0625ZM64.5213 7.45455V8.47727H60.946V7.45455H64.5213ZM61.9048 5.88636H63.179V12.0781C63.179 12.3253 63.2159 12.5114 63.2898 12.6364C63.3636 12.7585 63.4588 12.8423 63.5753 12.8878C63.6946 12.9304 63.8239 12.9517 63.9631 12.9517C64.0653 12.9517 64.1548 12.9446 64.2315 12.9304C64.3082 12.9162 64.3679 12.9048 64.4105 12.8963L64.6406 13.9489C64.5668 13.9773 64.4616 14.0057 64.3253 14.0341C64.1889 14.0653 64.0185 14.0824 63.8139 14.0852C63.4787 14.0909 63.1662 14.0312 62.8764 13.9062C62.5866 13.7812 62.3523 13.5881 62.1733 13.3267C61.9943 13.0653 61.9048 12.7372 61.9048 12.3423V5.88636ZM68.6815 14.1321C68.0366 14.1321 67.4812 13.9943 67.0153 13.7188C66.5522 13.4403 66.1942 13.0497 65.9414 12.5469C65.6914 12.0412 65.5664 11.4489 65.5664 10.7699C65.5664 10.0994 65.6914 9.50852 65.9414 8.99716C66.1942 8.4858 66.5465 8.08665 66.9982 7.79972C67.4528 7.51278 67.984 7.36932 68.592 7.36932C68.9613 7.36932 69.3192 7.4304 69.6658 7.55256C70.0124 7.67472 70.3235 7.86648 70.5991 8.12784C70.8746 8.3892 71.092 8.72869 71.2511 9.14631C71.4102 9.56108 71.4897 10.0653 71.4897 10.6591V11.1108H66.2866V10.1562H70.2411C70.2411 9.82102 70.1729 9.52415 70.0366 9.26562C69.9002 9.00426 69.7085 8.7983 69.4613 8.64773C69.217 8.49716 68.93 8.42188 68.6005 8.42188C68.2425 8.42188 67.93 8.50994 67.663 8.68608C67.3988 8.85937 67.1942 9.08665 67.0494 9.3679C66.9073 9.64631 66.8363 9.94886 66.8363 10.2756V11.0213C66.8363 11.4588 66.913 11.831 67.0664 12.1378C67.2227 12.4446 67.44 12.679 67.7184 12.8409C67.9968 13 68.3221 13.0795 68.6942 13.0795C68.9357 13.0795 69.1559 13.0455 69.3548 12.9773C69.5536 12.9062 69.7255 12.8011 69.8704 12.6619C70.0153 12.5227 70.1261 12.3509 70.2028 12.1463L71.4087 12.3636C71.3121 12.7187 71.1388 13.0298 70.8888 13.2969C70.6417 13.5611 70.3306 13.767 69.9556 13.9148C69.5835 14.0597 69.1587 14.1321 68.6815 14.1321Z" fill="white"/>
</svg>
