<svg width="75" height="20" viewBox="0 0 75 20" fill="none" xmlns="http://www.w3.org/2000/svg">
<path d="M0 6.4C0 4.15979 0 3.03968 0.435974 2.18404C0.819467 1.43139 1.43139 0.819467 2.18404 0.435974C3.03968 0 4.15979 0 6.4 0H68.6C70.8402 0 71.9603 0 72.816 0.435974C73.5686 0.819467 74.1805 1.43139 74.564 2.18404C75 3.03968 75 4.15979 75 6.4V13.6C75 15.8402 75 16.9603 74.564 17.816C74.1805 18.5686 73.5686 19.1805 72.816 19.564C71.9603 20 70.8402 20 68.6 20H6.4C4.15979 20 3.03968 20 2.18404 19.564C1.43139 19.1805 0.819467 18.5686 0.435974 17.816C0 16.9603 0 15.8402 0 13.6V6.4Z" fill="#FF2827"/>
<path d="M13.9606 9.27662V9.75912H13.6V9.27662H13.9606Z" fill="white"/>
<path fill-rule="evenodd" clip-rule="evenodd" d="M13.9412 4.18612C14.7938 4.18612 15.8704 4.00111 16.4603 4.77629C17.0063 5.49412 16.7918 6.64952 16.7918 7.50155V12.1346C16.7918 12.8798 16.8637 13.6647 16.7918 14.4059C16.7224 15.1234 16.1604 15.6564 15.4799 15.7987C15.2234 15.8523 14.927 15.8141 14.6653 15.8141H8.0589C7.20635 15.8141 6.12973 15.9985 5.53986 15.2233C4.99399 14.5054 5.20831 13.35 5.20831 12.4981V7.865C5.2083 7.11997 5.13643 6.33533 5.20831 5.59433C5.27776 4.87674 5.84019 4.34315 6.52081 4.20094C6.77725 4.14742 7.0732 4.18612 7.33486 4.18612H13.9412ZM8.42861 8.59303C8.38778 8.48189 8.01183 8.46852 7.92161 8.53321C7.81236 8.61217 7.87433 8.99234 7.87433 9.11654V10.4421C7.87433 10.5792 7.92513 10.8453 7.85439 10.9657C7.78761 11.0782 7.62421 11.0455 7.5143 11.0454C7.53618 11.1494 7.59966 11.4003 7.68805 11.467C7.88943 11.6183 8.29481 11.4427 8.3819 11.2459C8.47299 11.0395 8.43488 10.7827 8.43488 10.5623V9.27662C8.43491 9.08222 8.49414 8.77557 8.42861 8.59303ZM13.04 8.51327V8.71436H12.6794V9.27776H13.04V9.75912H12.4795V10.3225H13.04V11.488H13.6V10.3225H14.2004C14.285 10.3225 14.4037 10.3009 14.4813 10.3419C14.6275 10.42 14.6782 10.876 14.5547 10.9924C14.4499 11.0908 14.2124 11.0455 14.0808 11.0454C14.1029 11.1658 14.1494 11.3916 14.2545 11.4675C14.3108 11.5078 14.4169 11.4869 14.4813 11.4869C14.6887 11.4869 14.9241 11.5115 15.068 11.3268C15.1986 11.1588 15.162 10.9229 15.162 10.7236C15.162 10.3499 15.2216 9.88765 14.7615 9.77222C14.6833 9.75253 14.601 9.75911 14.5211 9.75912C14.5212 9.34738 14.5597 8.87439 14.0802 8.72747C13.9366 8.68346 13.7493 8.71436 13.6 8.71436V8.51327H13.04ZM9.51552 11.488H10.3968L10.5973 10.9657L10.0362 10.9514L9.72972 10.9452L9.51552 11.488ZM11.0781 8.71436V9.27662H11.3977V10.9657L10.8907 10.985L10.6771 11.4869H12.5193V10.9645H11.9987V9.27662H12.3194V8.71436H11.0781ZM6.95376 9.27662L6.83356 10.6034L7.07339 11.2459L7.34739 10.7646L7.5143 9.27662H6.95376ZM8.79547 9.27776C8.79553 9.55724 8.8482 9.84359 8.87522 10.1214C8.91317 10.5125 8.94124 10.8646 9.15607 11.2061H9.23582L9.47565 10.6034L9.35602 9.27662L8.79547 9.27776ZM10.6771 8.51327C10.5122 8.50004 10.2776 8.42565 10.1234 8.53321C10.0138 8.61043 9.95337 8.87375 9.90289 8.99521C9.83103 9.16824 9.48503 9.6716 9.79637 9.78647C9.87924 9.81697 9.98911 9.79905 10.0761 9.799C10.0384 9.97935 9.9425 10.1528 9.86985 10.3219C9.83516 10.4028 9.77402 10.5148 9.81687 10.6034C9.91045 10.7962 10.2621 10.7236 10.4367 10.7236C10.5139 10.7236 10.6047 10.7391 10.664 10.6774C10.7444 10.5931 10.7976 10.3899 10.8371 10.2821L10.4765 10.2411L10.877 9.27662H10.3968L10.6771 8.51327ZM15.0748 9.1906C15.3998 8.83172 14.7478 8.48172 14.614 8.91545C14.58 9.02551 14.6008 9.16243 14.6009 9.27662C14.7057 9.27662 14.8192 9.28927 14.9216 9.26352C14.973 9.25066 15.038 9.23115 15.0748 9.1906Z" fill="white"/>
<path d="M22.9588 14V5.27273H26.0696C26.7457 5.27273 27.3068 5.3892 27.7528 5.62216C28.2017 5.85511 28.5369 6.17756 28.7585 6.58949C28.9801 6.99858 29.0909 7.47159 29.0909 8.00852C29.0909 8.54261 28.9787 9.01278 28.7543 9.41903C28.5327 9.82244 28.1974 10.1364 27.7486 10.3608C27.3026 10.5852 26.7415 10.6974 26.0653 10.6974H23.7088V9.56392H25.946C26.3722 9.56392 26.7188 9.50284 26.9858 9.38068C27.2557 9.25852 27.4531 9.08097 27.5781 8.84801C27.7031 8.61506 27.7656 8.33523 27.7656 8.00852C27.7656 7.67898 27.7017 7.39347 27.5739 7.15199C27.4489 6.91051 27.2514 6.72585 26.9815 6.59801C26.7145 6.46733 26.3636 6.40199 25.929 6.40199H24.2756V14H22.9588ZM27.267 10.0625L29.4233 14H27.9233L25.8097 10.0625H27.267ZM33.3299 14.1321C32.685 14.1321 32.1296 13.9943 31.6637 13.7188C31.2006 13.4403 30.8427 13.0497 30.5898 12.5469C30.3398 12.0412 30.2148 11.4489 30.2148 10.7699C30.2148 10.0994 30.3398 9.50852 30.5898 8.99716C30.8427 8.4858 31.195 8.08665 31.6467 7.79972C32.1012 7.51278 32.6325 7.36932 33.2404 7.36932C33.6097 7.36932 33.9677 7.4304 34.3143 7.55256C34.6609 7.67472 34.9719 7.86648 35.2475 8.12784C35.5231 8.3892 35.7404 8.72869 35.8995 9.14631C36.0586 9.56108 36.1381 10.0653 36.1381 10.6591V11.1108H30.935V10.1562H34.8896C34.8896 9.82102 34.8214 9.52415 34.685 9.26562C34.5487 9.00426 34.3569 8.7983 34.1097 8.64773C33.8654 8.49716 33.5785 8.42188 33.2489 8.42188C32.891 8.42188 32.5785 8.50994 32.3114 8.68608C32.0472 8.85937 31.8427 9.08665 31.6978 9.3679C31.5558 9.64631 31.4847 9.94886 31.4847 10.2756V11.0213C31.4847 11.4588 31.5614 11.831 31.7148 12.1378C31.8711 12.4446 32.0884 12.679 32.3668 12.8409C32.6452 13 32.9705 13.0795 33.3427 13.0795C33.5842 13.0795 33.8043 13.0455 34.0032 12.9773C34.2021 12.9062 34.3739 12.8011 34.5188 12.6619C34.6637 12.5227 34.7745 12.3509 34.8512 12.1463L36.0572 12.3636C35.9606 12.7187 35.7873 13.0298 35.5373 13.2969C35.2901 13.5611 34.979 13.767 34.604 13.9148C34.2319 14.0597 33.8072 14.1321 33.3299 14.1321ZM40.0021 14.1278C39.4737 14.1278 39.0021 13.9929 38.5874 13.723C38.1754 13.4503 37.8516 13.0625 37.6158 12.5597C37.3828 12.054 37.2663 11.4474 37.2663 10.7401C37.2663 10.0327 37.3842 9.42756 37.62 8.92472C37.8587 8.42187 38.1854 8.03693 38.6001 7.76989C39.0149 7.50284 39.4851 7.36932 40.0107 7.36932C40.4169 7.36932 40.7436 7.4375 40.9908 7.57386C41.2408 7.70739 41.4339 7.86364 41.5703 8.04261C41.7095 8.22159 41.8175 8.37926 41.8942 8.51562H41.9709V5.27273H43.245V14H42.0007V12.9815H41.8942C41.8175 13.1207 41.7067 13.2798 41.5618 13.4588C41.4197 13.6378 41.2237 13.794 40.9737 13.9276C40.7237 14.0611 40.3999 14.1278 40.0021 14.1278ZM40.2834 13.0412C40.6499 13.0412 40.9595 12.9446 41.2124 12.7514C41.468 12.5554 41.6612 12.2841 41.7919 11.9375C41.9254 11.5909 41.9922 11.1875 41.9922 10.7273C41.9922 10.2727 41.9268 9.875 41.7962 9.53409C41.6655 9.19318 41.4737 8.92756 41.2209 8.73722C40.968 8.54687 40.6555 8.4517 40.2834 8.4517C39.8999 8.4517 39.5803 8.55114 39.3246 8.75C39.0689 8.94886 38.8757 9.22017 38.745 9.56392C38.6172 9.90767 38.5533 10.2955 38.5533 10.7273C38.5533 11.1648 38.6186 11.5582 38.7493 11.9077C38.88 12.2571 39.0732 12.5341 39.3288 12.7386C39.5874 12.9403 39.9055 13.0412 40.2834 13.0412ZM46.3377 10.1136V14H45.0636V7.45455H46.2866V8.51989H46.3675C46.5181 8.1733 46.7539 7.89489 47.0749 7.68466C47.3988 7.47443 47.8065 7.36932 48.2979 7.36932C48.744 7.36932 49.1346 7.46307 49.4698 7.65057C49.805 7.83523 50.065 8.1108 50.2496 8.47727C50.4343 8.84375 50.5266 9.29687 50.5266 9.83665V14H49.2525V9.99006C49.2525 9.51562 49.1289 9.14489 48.8817 8.87784C48.6346 8.60795 48.2951 8.47301 47.8633 8.47301C47.5678 8.47301 47.305 8.53693 47.0749 8.66477C46.8477 8.79261 46.6673 8.98011 46.5337 9.22727C46.4031 9.47159 46.3377 9.76705 46.3377 10.1136ZM54.9925 14.1321C54.3789 14.1321 53.8434 13.9915 53.386 13.7102C52.9286 13.429 52.5735 13.0355 52.3207 12.5298C52.0678 12.0241 51.9414 11.4332 51.9414 10.7571C51.9414 10.0781 52.0678 9.48437 52.3207 8.97585C52.5735 8.46733 52.9286 8.07244 53.386 7.79119C53.8434 7.50994 54.3789 7.36932 54.9925 7.36932C55.6062 7.36932 56.1417 7.50994 56.5991 7.79119C57.0565 8.07244 57.4116 8.46733 57.6644 8.97585C57.9173 9.48437 58.0437 10.0781 58.0437 10.7571C58.0437 11.4332 57.9173 12.0241 57.6644 12.5298C57.4116 13.0355 57.0565 13.429 56.5991 13.7102C56.1417 13.9915 55.6062 14.1321 54.9925 14.1321ZM54.9968 13.0625C55.3945 13.0625 55.7241 12.9574 55.9854 12.7472C56.2468 12.5369 56.44 12.2571 56.565 11.9077C56.6928 11.5582 56.7567 11.1733 56.7567 10.7528C56.7567 10.3352 56.6928 9.9517 56.565 9.60227C56.44 9.25 56.2468 8.96733 55.9854 8.75426C55.7241 8.54119 55.3945 8.43466 54.9968 8.43466C54.5962 8.43466 54.2638 8.54119 53.9996 8.75426C53.7383 8.96733 53.5437 9.25 53.4158 9.60227C53.2908 9.9517 53.2283 10.3352 53.2283 10.7528C53.2283 11.1733 53.2908 11.5582 53.4158 11.9077C53.5437 12.2571 53.7383 12.5369 53.9996 12.7472C54.2638 12.9574 54.5962 13.0625 54.9968 13.0625ZM62.5213 7.45455V8.47727H58.946V7.45455H62.5213ZM59.9048 5.88636H61.179V12.0781C61.179 12.3253 61.2159 12.5114 61.2898 12.6364C61.3636 12.7585 61.4588 12.8423 61.5753 12.8878C61.6946 12.9304 61.8239 12.9517 61.9631 12.9517C62.0653 12.9517 62.1548 12.9446 62.2315 12.9304C62.3082 12.9162 62.3679 12.9048 62.4105 12.8963L62.6406 13.9489C62.5668 13.9773 62.4616 14.0057 62.3253 14.0341C62.1889 14.0653 62.0185 14.0824 61.8139 14.0852C61.4787 14.0909 61.1662 14.0312 60.8764 13.9062C60.5866 13.7812 60.3523 13.5881 60.1733 13.3267C59.9943 13.0653 59.9048 12.7372 59.9048 12.3423V5.88636ZM66.6815 14.1321C66.0366 14.1321 65.4812 13.9943 65.0153 13.7188C64.5522 13.4403 64.1942 13.0497 63.9414 12.5469C63.6914 12.0412 63.5664 11.4489 63.5664 10.7699C63.5664 10.0994 63.6914 9.50852 63.9414 8.99716C64.1942 8.4858 64.5465 8.08665 64.9982 7.79972C65.4528 7.51278 65.984 7.36932 66.592 7.36932C66.9613 7.36932 67.3192 7.4304 67.6658 7.55256C68.0124 7.67472 68.3235 7.86648 68.5991 8.12784C68.8746 8.3892 69.092 8.72869 69.2511 9.14631C69.4102 9.56108 69.4897 10.0653 69.4897 10.6591V11.1108H64.2866V10.1562H68.2411C68.2411 9.82102 68.1729 9.52415 68.0366 9.26562C67.9002 9.00426 67.7085 8.7983 67.4613 8.64773C67.217 8.49716 66.93 8.42188 66.6005 8.42188C66.2425 8.42188 65.93 8.50994 65.663 8.68608C65.3988 8.85937 65.1942 9.08665 65.0494 9.3679C64.9073 9.64631 64.8363 9.94886 64.8363 10.2756V11.0213C64.8363 11.4588 64.913 11.831 65.0664 12.1378C65.2227 12.4446 65.44 12.679 65.7184 12.8409C65.9968 13 66.3221 13.0795 66.6942 13.0795C66.9357 13.0795 67.1559 13.0455 67.3548 12.9773C67.5536 12.9062 67.7255 12.8011 67.8704 12.6619C68.0153 12.5227 68.1261 12.3509 68.2028 12.1463L69.4087 12.3636C69.3121 12.7187 69.1388 13.0298 68.8888 13.2969C68.6417 13.5611 68.3306 13.767 67.9556 13.9148C67.5835 14.0597 67.1587 14.1321 66.6815 14.1321Z" fill="white"/>
</svg>
