<svg width="84" height="20" viewBox="0 0 84 20" fill="none" xmlns="http://www.w3.org/2000/svg">
<path d="M0 6.4C0 4.15979 0 3.03969 0.435974 2.18404C0.819467 1.43139 1.43139 0.819467 2.18404 0.435974C3.03969 0 4.15979 0 6.4 0H77.6C79.8402 0 80.9603 0 81.816 0.435974C82.5686 0.819467 83.1805 1.43139 83.564 2.18404C84 3.03969 84 4.15979 84 6.4V13.6C84 15.8402 84 16.9603 83.564 17.816C83.1805 18.5686 82.5686 19.1805 81.816 19.564C80.9603 20 79.8402 20 77.6 20H6.4C4.15979 20 3.03969 20 2.18404 19.564C1.43139 19.1805 0.819467 18.5686 0.435974 17.816C0 16.9603 0 15.8402 0 13.6V6.4Z" fill="#000000"/>
<path d="M12 4.5C9 4.5 7 6.6 7 10C7 13.4 9 15.5 12 15.5C14.2 15.5 15.7 14.4 16.2 12.5L14.6 12.1C14.3 13.2 13.4 13.9 12 13.9C10.3 13.9 9.1 12.9 8.8 11.1C9.4 11.3 10.4 11.4 11.3 11.4C12.6 11.4 13.9 11.2 14.7 10.8C15.5 10.4 16 9.7 16 8.7C16 6.9 14.4 5.7 12.4 5.7C10.9 5.7 9.7 6.3 9 7.3C9.5 6 10.7 5.1 12.1 5.1C13.1 5.1 13.8 5.5 14.2 6.1L15.6 5.3C14.9 4.7 13.7 4.5 12 4.5ZM11.9 7C13 7 13.7 7.5 13.7 8.3C13.7 8.8 13.4 9.1 12.9 9.3C12.4 9.5 11.6 9.6 10.7 9.6C10.1 9.6 9.4 9.5 8.8 9.4C9 8 10.2 7 11.9 7Z" fill="white"/>
<text x="21" y="14.5" font-family="Helvetica, Arial, sans-serif" font-size="10" font-weight="700" fill="white">Threads</text>
</svg>
