<svg width="46" height="46" viewBox="0 0 46 46" fill="none" xmlns="http://www.w3.org/2000/svg">
<rect width="46" height="46" rx="8" fill="#207661"/>
<path opacity="0.5" d="M21.8093 19.4291L21.4822 15.7299C21.4822 14.8997 22.1618 14.2266 23.0001 14.2266C23.8383 14.2266 24.518 14.8997 24.518 15.7299L24.1908 19.4291C24.1908 20.0804 23.6577 20.6084 23.0001 20.6084C22.3414 20.6084 21.8093 20.0804 21.8093 19.4291Z" fill="white"/>
<path d="M21.8698 31.3981C21.8115 31.3403 21.5647 31.1243 21.3598 30.9214C20.0766 29.7377 17.9782 26.6472 17.336 25.0305C17.2335 24.7851 17.0154 24.1644 17 23.8316C17 23.5142 17.0738 23.2109 17.2192 22.9218C17.423 22.5607 17.7446 22.2727 18.1236 22.1135C18.3857 22.012 19.1733 21.8527 19.1876 21.8527C20.0479 21.6946 21.4469 21.6084 22.9934 21.6084C24.465 21.6084 25.8067 21.6946 26.6813 21.8244C26.6967 21.8386 27.6738 21.9978 28.0086 22.1713C28.6211 22.4887 29 23.1095 29 23.7738V23.8316C28.9857 24.2647 28.6057 25.1745 28.5924 25.1745C27.9502 26.705 25.9532 29.7225 24.6258 30.9355C24.6258 30.9355 24.2844 31.2781 24.0718 31.4264C23.7656 31.6577 23.3866 31.7734 23.0077 31.7734C22.5847 31.7734 22.1915 31.6435 21.8698 31.3981Z" fill="white"/>
</svg>
